<svg xmlns="http://www.w3.org/2000/svg" xmlns:xlink="http://www.w3.org/1999/xlink" width="500" zoomAndPan="magnify" viewBox="0 0 375 374.999991" height="500" preserveAspectRatio="xMidYMid meet" version="1.0"><defs><g/><clipPath id="866b8f9f7f"><path d="M 33.507812 200.605469 L 350.742188 200.605469 L 350.742188 237.679688 L 33.507812 237.679688 Z M 33.507812 200.605469 " clip-rule="nonzero"/></clipPath></defs><rect x="-37.5" width="450" fill="#ffffff" y="-37.499999" height="449.999989" fill-opacity="1"/><rect x="-37.5" width="450" fill="#000000" y="-37.499999" height="449.999989" fill-opacity="1"/><g fill="#f4f4f4" fill-opacity="1"><g transform="translate(56.965806, 216.929235)"><g><path d="M 0.1875 0 L 0.1875 -1.8125 L 6 -1.8125 C 9.757812 -1.8125 12.726562 -2.84375 14.90625 -4.90625 C 17.082031 -6.96875 19.082031 -10.601562 20.90625 -15.8125 L 61.265625 -129.796875 L 72.90625 -129.796875 L 117.078125 -12.359375 C 118.648438 -8.359375 120.285156 -5.597656 121.984375 -4.078125 C 123.679688 -2.566406 125.925781 -1.8125 128.71875 -1.8125 L 130.53125 -1.8125 L 130.53125 0 L 77.8125 0 L 77.8125 -1.8125 L 83.625 -1.8125 C 87.75 -1.8125 90.71875 -2.328125 92.53125 -3.359375 C 94.351562 -4.390625 95.265625 -6.238281 95.265625 -8.90625 C 95.265625 -9.875 95.140625 -11.054688 94.890625 -12.453125 C 94.648438 -13.847656 94.226562 -15.394531 93.625 -17.09375 L 82.71875 -47.265625 L 34.171875 -47.265625 L 24 -18.71875 C 23.394531 -16.90625 22.910156 -15.300781 22.546875 -13.90625 C 22.179688 -12.507812 22 -11.207031 22 -10 C 22 -6.96875 23.238281 -4.84375 25.71875 -3.625 C 28.207031 -2.414062 32.238281 -1.8125 37.8125 -1.8125 L 44.359375 -1.8125 L 44.359375 0 Z M 34.71875 -49.078125 L 81.984375 -49.078125 L 69.265625 -83.984375 C 67.203125 -89.679688 65.203125 -95.410156 63.265625 -101.171875 C 61.328125 -106.929688 59.75 -112.234375 58.53125 -117.078125 C 56.84375 -111.984375 55.175781 -107.132812 53.53125 -102.53125 C 51.894531 -97.925781 50.050781 -92.65625 48 -86.71875 Z M 34.71875 -49.078125 "/></g></g></g><g fill="#f4f4f4" fill-opacity="1"><g transform="translate(173.659798, 264.520507)"><g><path d="M 6.546875 0 L 6.546875 -1.8125 L 10.359375 -1.8125 C 14.597656 -1.8125 17.867188 -2.78125 20.171875 -4.71875 C 22.484375 -6.664062 23.640625 -9.941406 23.640625 -14.546875 L 23.640625 -115.796875 C 23.640625 -120.160156 22.484375 -123.28125 20.171875 -125.15625 C 17.867188 -127.039062 14.597656 -127.984375 10.359375 -127.984375 L 6.546875 -127.984375 L 6.546875 -129.796875 L 62.171875 -129.796875 L 62.171875 -127.984375 L 58.359375 -127.984375 C 53.992188 -127.984375 50.660156 -127.015625 48.359375 -125.078125 C 46.054688 -123.140625 44.90625 -119.867188 44.90625 -115.265625 L 44.90625 -68.71875 L 100.53125 -68.71875 L 100.53125 -115.265625 C 100.53125 -119.867188 99.410156 -123.140625 97.171875 -125.078125 C 94.929688 -127.015625 91.628906 -127.984375 87.265625 -127.984375 L 83.4375 -127.984375 L 83.4375 -129.796875 L 139.078125 -129.796875 L 139.078125 -127.984375 L 135.25 -127.984375 C 131.007812 -127.984375 127.707031 -127.039062 125.34375 -125.15625 C 122.976562 -123.28125 121.796875 -120.160156 121.796875 -115.796875 L 121.796875 -14.546875 C 121.796875 -9.941406 122.976562 -6.664062 125.34375 -4.71875 C 127.707031 -2.78125 131.007812 -1.8125 135.25 -1.8125 L 139.078125 -1.8125 L 139.078125 0 L 83.4375 0 L 83.4375 -1.8125 L 87.265625 -1.8125 C 91.628906 -1.8125 94.929688 -2.78125 97.171875 -4.71875 C 99.410156 -6.664062 100.53125 -9.941406 100.53125 -14.546875 L 100.53125 -66.90625 L 44.90625 -66.90625 L 44.90625 -14.546875 C 44.90625 -9.941406 46.054688 -6.664062 48.359375 -4.71875 C 50.660156 -2.78125 53.992188 -1.8125 58.359375 -1.8125 L 62.171875 -1.8125 L 62.171875 0 Z M 6.546875 0 "/></g></g></g><g fill="#f4f4f4" fill-opacity="1"><g transform="translate(58.751202, 250.793847)"><g><path d="M 1.847656 -2.5 L 3.089844 -5.628906 L 4.320312 -2.5 Z M 6.070312 0 L 3.089844 -7.269531 L 0.101562 0 L 0.859375 0 L 1.589844 -1.847656 L 4.578125 -1.847656 L 5.308594 0 Z M 6.070312 0 "/></g></g></g><g fill="#f4f4f4" fill-opacity="1"><g transform="translate(72.598747, 250.793847)"><g><path d="M 1.449219 -3.359375 L 1.449219 -6.128906 L 3.027344 -6.128906 C 3.4375 -6.128906 3.769531 -6 4.019531 -5.738281 C 4.257812 -5.480469 4.390625 -5.160156 4.390625 -4.757812 C 4.390625 -4.359375 4.257812 -4.027344 4 -3.757812 C 3.738281 -3.488281 3.417969 -3.359375 3.027344 -3.359375 Z M 5.089844 -4.75 C 5.089844 -5.328125 4.867188 -5.828125 4.449219 -6.21875 C 4.039062 -6.597656 3.527344 -6.796875 2.929688 -6.796875 L 0.75 -6.796875 L 0.75 0 L 1.449219 0 L 1.449219 -2.6875 L 2.257812 -2.6875 L 4.257812 0 L 5.199219 0 L 3.097656 -2.6875 C 3.628906 -2.71875 4.078125 -2.910156 4.449219 -3.257812 C 4.867188 -3.648438 5.089844 -4.148438 5.089844 -4.75 Z M 5.089844 -4.75 "/></g></g></g><g fill="#f4f4f4" fill-opacity="1"><g transform="translate(85.716582, 250.793847)"><g><path d="M 0.199219 -6.167969 L 1.847656 -6.167969 L 1.847656 -0.0195312 L 2.550781 -0.0195312 L 2.550781 -6.167969 L 4.199219 -6.167969 L 4.199219 -6.816406 L 0.199219 -6.816406 Z M 0.199219 -6.167969 "/></g></g></g><g fill="#f4f4f4" fill-opacity="1"><g transform="translate(97.794825, 250.793847)"><g/></g></g><g fill="#f4f4f4" fill-opacity="1"><g transform="translate(108.173745, 250.793847)"><g><path d="M 7.457031 -3.179688 L 3.917969 -3.179688 L 3.917969 -2.570312 L 6.679688 -2.570312 C 6.46875 -1.980469 6.117188 -1.5 5.617188 -1.148438 C 5.117188 -0.789062 4.558594 -0.621094 3.949219 -0.621094 C 3.167969 -0.621094 2.507812 -0.890625 1.960938 -1.441406 C 1.417969 -1.988281 1.148438 -2.660156 1.148438 -3.429688 C 1.148438 -4.199219 1.417969 -4.859375 1.96875 -5.410156 C 2.507812 -5.949219 3.167969 -6.226562 3.949219 -6.226562 C 4.527344 -6.226562 5.058594 -6.058594 5.527344 -5.730469 C 6.007812 -5.398438 6.347656 -4.96875 6.566406 -4.417969 L 7.308594 -4.417969 C 7.078125 -5.167969 6.648438 -5.769531 6.027344 -6.226562 C 5.410156 -6.6875 4.6875 -6.929688 3.878906 -6.929688 C 3.4375 -6.929688 3.007812 -6.828125 2.589844 -6.648438 C 2.160156 -6.46875 1.789062 -6.21875 1.46875 -5.898438 C 1.148438 -5.578125 0.898438 -5.207031 0.71875 -4.789062 C 0.539062 -4.359375 0.449219 -3.898438 0.449219 -3.417969 C 0.449219 -2.9375 0.539062 -2.480469 0.71875 -2.058594 C 0.898438 -1.628906 1.148438 -1.257812 1.46875 -0.941406 C 1.789062 -0.621094 2.160156 -0.371094 2.589844 -0.191406 C 3.007812 -0.0117188 3.46875 0.078125 3.949219 0.078125 C 4.769531 0.078125 5.507812 -0.179688 6.167969 -0.710938 C 6.828125 -1.25 7.238281 -1.929688 7.386719 -2.757812 Z M 7.457031 -3.179688 "/></g></g></g><g fill="#f4f4f4" fill-opacity="1"><g transform="translate(123.760609, 250.793847)"><g><path d="M 1.847656 -2.5 L 3.089844 -5.628906 L 4.320312 -2.5 Z M 6.070312 0 L 3.089844 -7.269531 L 0.101562 0 L 0.859375 0 L 1.589844 -1.847656 L 4.578125 -1.847656 L 5.308594 0 Z M 6.070312 0 "/></g></g></g><g fill="#f4f4f4" fill-opacity="1"><g transform="translate(137.608154, 250.793847)"><g><path d="M 1.449219 -0.699219 L 1.449219 -6.796875 L 0.75 -6.796875 L 0.75 0 L 3.878906 0 L 3.878906 -0.699219 Z M 1.449219 -0.699219 "/></g></g></g><g fill="#f4f4f4" fill-opacity="1"><g transform="translate(149.366522, 250.793847)"><g><path d="M 1.449219 -0.699219 L 1.449219 -6.796875 L 0.75 -6.796875 L 0.75 0 L 3.878906 0 L 3.878906 -0.699219 Z M 1.449219 -0.699219 "/></g></g></g><g fill="#f4f4f4" fill-opacity="1"><g transform="translate(161.124891, 250.793847)"><g><path d="M 4.789062 0 L 4.789062 -0.648438 L 1.449219 -0.648438 L 1.449219 -3.070312 L 4.6875 -3.070312 L 4.6875 -3.730469 L 1.449219 -3.730469 L 1.449219 -6.148438 L 4.789062 -6.148438 L 4.789062 -6.796875 L 0.75 -6.796875 L 0.75 0 Z M 4.789062 0 "/></g></g></g><g fill="#f4f4f4" fill-opacity="1"><g transform="translate(174.34269, 250.793847)"><g><path d="M 1.449219 -3.359375 L 1.449219 -6.128906 L 3.027344 -6.128906 C 3.4375 -6.128906 3.769531 -6 4.019531 -5.738281 C 4.257812 -5.480469 4.390625 -5.160156 4.390625 -4.757812 C 4.390625 -4.359375 4.257812 -4.027344 4 -3.757812 C 3.738281 -3.488281 3.417969 -3.359375 3.027344 -3.359375 Z M 5.089844 -4.75 C 5.089844 -5.328125 4.867188 -5.828125 4.449219 -6.21875 C 4.039062 -6.597656 3.527344 -6.796875 2.929688 -6.796875 L 0.75 -6.796875 L 0.75 0 L 1.449219 0 L 1.449219 -2.6875 L 2.257812 -2.6875 L 4.257812 0 L 5.199219 0 L 3.097656 -2.6875 C 3.628906 -2.71875 4.078125 -2.910156 4.449219 -3.257812 C 4.867188 -3.648438 5.089844 -4.148438 5.089844 -4.75 Z M 5.089844 -4.75 "/></g></g></g><g fill="#f4f4f4" fill-opacity="1"><g transform="translate(187.460526, 250.793847)"><g><path d="M 3.378906 -3.199219 L 5.949219 -6.796875 L 5.058594 -6.796875 L 3.027344 -3.890625 L 1 -6.796875 L 0.101562 -6.796875 L 2.679688 -3.1875 L 2.679688 0 L 3.378906 0 Z M 3.378906 -3.199219 "/></g></g></g><g clip-path="url(#866b8f9f7f)"><path fill="#000000" d="M 33.507812 200.605469 L 350.800781 200.605469 L 350.800781 237.679688 L 33.507812 237.679688 Z M 33.507812 200.605469 " fill-opacity="1" fill-rule="nonzero"/></g><g fill="#f4f4f4" fill-opacity="1"><g transform="translate(47.835939, 230.128682)"><g><path d="M 28.683594 -10.273438 C 27.34375 -10.074219 26.046875 -9.921875 24.746094 -9.746094 C 24.570312 -9.722656 24.375 -9.8125 24.242188 -9.941406 C 24.132812 -10.097656 24.085938 -10.292969 24.152344 -10.472656 L 28.839844 -25.890625 C 28.925781 -26.199219 28.75 -26.507812 28.441406 -26.617188 C 28.136719 -26.703125 27.828125 -26.527344 27.71875 -26.222656 L 22.746094 -9.855469 C 22.679688 -9.636719 22.503906 -9.480469 22.285156 -9.457031 C 21.753906 -9.414062 21.25 -9.347656 20.742188 -9.304688 C 20.5 -9.28125 20.28125 -9.414062 20.171875 -9.636719 C 19.445312 -11.195312 18.257812 -12.496094 16.738281 -13.332031 C 16.5 -13.441406 16.257812 -13.574219 15.992188 -13.683594 C 15.75 -13.792969 15.597656 -14.078125 15.683594 -14.34375 L 18.632812 -24.945312 C 18.699219 -25.164062 18.652344 -25.363281 18.5 -25.515625 C 18.347656 -25.671875 18.125 -25.738281 17.929688 -25.671875 C 17.730469 -25.628906 17.574219 -25.472656 17.53125 -25.253906 L 14.585938 -14.671875 C 14.496094 -14.386719 14.210938 -14.230469 13.925781 -14.277344 C 9.921875 -15.003906 5.300781 -13.332031 2.199219 -10.867188 C 1.253906 -10.117188 0.902344 -9.414062 1.1875 -8.753906 C 1.78125 -7.347656 6.402344 -7.148438 11.789062 -7.390625 C 11.964844 -7.414062 12.144531 -7.324219 12.253906 -7.191406 C 12.363281 -7.0625 12.40625 -6.863281 12.363281 -6.6875 L 10.734375 -0.878906 C 10.667969 -0.570312 10.84375 -0.265625 11.152344 -0.199219 C 11.460938 -0.109375 11.769531 -0.285156 11.855469 -0.570312 L 13.683594 -7.128906 C 13.75 -7.371094 13.945312 -7.523438 14.1875 -7.546875 C 15.839844 -7.65625 17.511719 -7.808594 19.117188 -7.964844 C 19.378906 -7.984375 19.644531 -7.832031 19.710938 -7.566406 C 20.238281 -5.433594 20.371094 -3.210938 20.082031 -1.035156 C 20.039062 -0.726562 20.238281 -0.460938 20.523438 -0.394531 C 20.832031 -0.328125 21.117188 -0.507812 21.207031 -0.792969 L 23.425781 -8.09375 C 23.492188 -8.316406 23.667969 -8.46875 23.890625 -8.492188 C 25.914062 -8.734375 27.628906 -8.953125 28.839844 -9.128906 C 29.035156 -9.152344 29.234375 -9.28125 29.300781 -9.480469 C 29.386719 -9.679688 29.34375 -9.898438 29.234375 -10.054688 C 29.101562 -10.230469 28.882812 -10.292969 28.683594 -10.273438 Z M 2.242188 -9.21875 C 2.242188 -9.21875 2.242188 -9.457031 2.902344 -9.988281 C 5.519531 -12.03125 8.710938 -13.199219 12.03125 -13.285156 C 12.515625 -13.308594 13.023438 -13.265625 13.527344 -13.175781 C 13.683594 -13.15625 13.8125 -13.066406 13.902344 -12.933594 C 13.992188 -12.800781 14.011719 -12.625 13.96875 -12.472656 L 13 -9.039062 C 12.933594 -8.800781 12.738281 -8.644531 12.496094 -8.621094 C 6.578125 -8.292969 2.550781 -8.445312 2.242188 -9.21875 Z M 14.914062 -8.777344 C 14.714844 -8.753906 14.539062 -8.84375 14.429688 -8.976562 C 14.320312 -9.128906 14.277344 -9.328125 14.34375 -9.480469 L 15.246094 -12.738281 C 15.550781 -12.625 15.882812 -12.472656 16.191406 -12.320312 C 17.203125 -11.746094 18.082031 -10.933594 18.699219 -9.921875 C 18.785156 -9.765625 18.808594 -9.546875 18.71875 -9.371094 C 18.632812 -9.195312 18.457031 -9.085938 18.257812 -9.0625 C 17.113281 -8.953125 15.992188 -8.863281 14.914062 -8.777344 Z M 21.316406 -5.125 C 21.25 -5.9375 21.117188 -6.730469 20.917969 -7.523438 C 20.898438 -7.675781 20.917969 -7.832031 21.007812 -7.964844 C 21.09375 -8.09375 21.25 -8.183594 21.402344 -8.203125 L 21.425781 -8.203125 C 21.625 -8.226562 21.800781 -8.140625 21.910156 -8.007812 C 22.042969 -7.851562 22.085938 -7.65625 22.019531 -7.480469 Z M 21.316406 -5.125 "/></g></g></g><g fill="#f4f4f4" fill-opacity="1"><g transform="translate(77.068725, 230.128682)"><g><path d="M 18.390625 -5.324219 C 18.171875 -5.566406 17.796875 -5.585938 17.554688 -5.367188 C 17.488281 -5.300781 10.953125 0.570312 6.90625 -2.089844 C 5.300781 -3.144531 4.90625 -5.699219 4.90625 -5.71875 C 4.882812 -5.984375 4.683594 -6.179688 4.421875 -6.226562 C 4.179688 -6.246094 3.914062 -6.117188 3.804688 -5.894531 C 2.773438 -3.609375 0.945312 -0.703125 0.441406 -1.035156 C 0.394531 -1.035156 0.308594 -1.121094 0.242188 -1.277344 C -0.0234375 -2 0.0664062 -2.792969 0.441406 -3.476562 C 1.277344 -5.191406 2.816406 -6.421875 4.664062 -6.886719 C 4.863281 -6.929688 5.015625 -7.082031 5.082031 -7.28125 C 5.148438 -7.480469 5.082031 -7.699219 4.949219 -7.851562 C 4.796875 -7.984375 4.597656 -8.050781 4.398438 -8.007812 C 2.199219 -7.480469 0.375 -5.984375 -0.617188 -3.960938 C -1.144531 -2.96875 -1.210938 -1.78125 -0.792969 -0.746094 C -0.59375 -0.242188 -0.109375 0.109375 0.441406 0.109375 L 0.460938 0.109375 C 1.539062 0.0898438 2.882812 -1.253906 3.804688 -2.707031 C 3.914062 -2.882812 4.113281 -2.96875 4.3125 -2.949219 C 4.507812 -2.949219 4.683594 -2.835938 4.773438 -2.660156 C 5.148438 -2.046875 5.652344 -1.519531 6.269531 -1.144531 C 11.066406 2.046875 18.039062 -4.246094 18.347656 -4.507812 C 18.457031 -4.621094 18.523438 -4.773438 18.523438 -4.90625 C 18.542969 -5.058594 18.476562 -5.214844 18.390625 -5.324219 Z M 18.390625 -5.324219 "/></g></g></g><g fill="#f4f4f4" fill-opacity="1"><g transform="translate(94.841559, 230.128682)"><g><path d="M 19.226562 -5.476562 C 19.09375 -5.566406 18.960938 -5.632812 18.808594 -5.632812 C 18.652344 -5.609375 18.5 -5.542969 18.410156 -5.433594 C 18.347656 -5.390625 13.507812 -0.21875 9.304688 -1.914062 C 8.402344 -2.398438 7.675781 -3.125 7.171875 -4.027344 C 6.996094 -4.3125 6.773438 -4.597656 6.511719 -4.863281 C 6.226562 -5.214844 5.785156 -5.410156 5.324219 -5.433594 C 4.203125 -5.519531 2.835938 -4.773438 1.210938 -3.234375 C 1.164062 -3.191406 1.101562 -3.167969 1.035156 -3.210938 C 0.96875 -3.234375 0.925781 -3.320312 0.945312 -3.386719 L 1.429688 -5.542969 C 1.519531 -5.851562 1.320312 -6.179688 1.011719 -6.246094 C 0.703125 -6.3125 0.394531 -6.117188 0.308594 -5.808594 L -0.792969 -0.988281 C -0.859375 -0.726562 -0.726562 -0.460938 -0.484375 -0.351562 C -0.242188 -0.21875 0.0429688 -0.285156 0.21875 -0.484375 C 3.167969 -3.9375 4.664062 -4.265625 5.191406 -4.289062 C 5.71875 -4.3125 6.050781 -3.628906 6.226562 -3.367188 C 6.839844 -2.289062 7.765625 -1.40625 8.863281 -0.859375 C 13.792969 1.144531 19.027344 -4.421875 19.246094 -4.664062 C 19.46875 -4.882812 19.445312 -5.257812 19.226562 -5.476562 Z M 19.226562 -5.476562 "/></g></g></g><g fill="#f4f4f4" fill-opacity="1"><g transform="translate(113.164292, 230.128682)"><g><path d="M 19.226562 -5.476562 C 19.09375 -5.566406 18.960938 -5.632812 18.808594 -5.632812 C 18.652344 -5.609375 18.5 -5.542969 18.410156 -5.433594 C 18.347656 -5.390625 13.507812 -0.21875 9.304688 -1.914062 C 8.402344 -2.398438 7.675781 -3.125 7.171875 -4.027344 C 6.996094 -4.3125 6.773438 -4.597656 6.511719 -4.863281 C 6.226562 -5.214844 5.785156 -5.410156 5.324219 -5.433594 C 4.203125 -5.519531 2.835938 -4.773438 1.210938 -3.234375 C 1.164062 -3.191406 1.101562 -3.167969 1.035156 -3.210938 C 0.96875 -3.234375 0.925781 -3.320312 0.945312 -3.386719 L 1.429688 -5.542969 C 1.519531 -5.851562 1.320312 -6.179688 1.011719 -6.246094 C 0.703125 -6.3125 0.394531 -6.117188 0.308594 -5.808594 L -0.792969 -0.988281 C -0.859375 -0.726562 -0.726562 -0.460938 -0.484375 -0.351562 C -0.242188 -0.21875 0.0429688 -0.285156 0.21875 -0.484375 C 3.167969 -3.9375 4.664062 -4.265625 5.191406 -4.289062 C 5.71875 -4.3125 6.050781 -3.628906 6.226562 -3.367188 C 6.839844 -2.289062 7.765625 -1.40625 8.863281 -0.859375 C 13.792969 1.144531 19.027344 -4.421875 19.246094 -4.664062 C 19.46875 -4.882812 19.445312 -5.257812 19.226562 -5.476562 Z M 19.226562 -5.476562 "/></g></g></g><g fill="#f4f4f4" fill-opacity="1"><g transform="translate(131.487026, 230.128682)"><g><path d="M 18.390625 -5.324219 C 18.171875 -5.566406 17.796875 -5.585938 17.554688 -5.367188 C 17.488281 -5.300781 10.953125 0.570312 6.90625 -2.089844 C 5.300781 -3.144531 4.90625 -5.699219 4.90625 -5.71875 C 4.882812 -5.984375 4.683594 -6.179688 4.421875 -6.226562 C 4.179688 -6.246094 3.914062 -6.117188 3.804688 -5.894531 C 2.773438 -3.609375 0.945312 -0.703125 0.441406 -1.035156 C 0.394531 -1.035156 0.308594 -1.121094 0.242188 -1.277344 C -0.0234375 -2 0.0664062 -2.792969 0.441406 -3.476562 C 1.277344 -5.191406 2.816406 -6.421875 4.664062 -6.886719 C 4.863281 -6.929688 5.015625 -7.082031 5.082031 -7.28125 C 5.148438 -7.480469 5.082031 -7.699219 4.949219 -7.851562 C 4.796875 -7.984375 4.597656 -8.050781 4.398438 -8.007812 C 2.199219 -7.480469 0.375 -5.984375 -0.617188 -3.960938 C -1.144531 -2.96875 -1.210938 -1.78125 -0.792969 -0.746094 C -0.59375 -0.242188 -0.109375 0.109375 0.441406 0.109375 L 0.460938 0.109375 C 1.539062 0.0898438 2.882812 -1.253906 3.804688 -2.707031 C 3.914062 -2.882812 4.113281 -2.96875 4.3125 -2.949219 C 4.507812 -2.949219 4.683594 -2.835938 4.773438 -2.660156 C 5.148438 -2.046875 5.652344 -1.519531 6.269531 -1.144531 C 11.066406 2.046875 18.039062 -4.246094 18.347656 -4.507812 C 18.457031 -4.621094 18.523438 -4.773438 18.523438 -4.90625 C 18.542969 -5.058594 18.476562 -5.214844 18.390625 -5.324219 Z M 18.390625 -5.324219 "/></g></g></g><g fill="#f4f4f4" fill-opacity="1"><g transform="translate(149.259859, 230.128682)"><g><path d="M 17.355469 -5.257812 C 17.136719 -5.5 16.785156 -5.519531 16.542969 -5.300781 C 16.5 -5.28125 11.964844 -1.320312 8.644531 -1.847656 C 7.65625 -2 6.796875 -2.597656 6.3125 -3.476562 C 5.894531 -4.246094 5.125 -4.730469 4.265625 -4.816406 C 3.191406 -4.882812 2 -4.246094 0.746094 -2.925781 C 0.683594 -2.859375 0.570312 -2.835938 0.484375 -2.882812 C 0.394531 -2.925781 0.351562 -3.011719 0.375 -3.125 C 0.441406 -3.542969 0.636719 -4.597656 0.726562 -4.992188 C 0.726562 -4.925781 0.878906 -5.234375 0.878906 -5.257812 C 2.75 -7.808594 8.335938 -15.902344 6.160156 -18.5 C 5.875 -18.894531 5.34375 -19.070312 4.863281 -18.941406 C 4.421875 -18.808594 3.078125 -18.390625 1.011719 -11.042969 C 0.507812 -9.261719 0.0429688 -7.347656 -0.328125 -5.542969 L -0.484375 -5.34375 C -0.636719 -5.148438 -0.636719 -4.882812 -0.507812 -4.664062 C -0.835938 -3.035156 -1.054688 -1.539062 -1.164062 -0.394531 C -1.1875 -0.132812 -1.035156 0.109375 -0.792969 0.199219 C -0.550781 0.285156 -0.265625 0.199219 -0.109375 -0.0234375 C 2.132812 -3.277344 3.5625 -3.695312 4.203125 -3.671875 C 4.664062 -3.628906 5.082031 -3.34375 5.300781 -2.925781 C 5.960938 -1.738281 7.128906 -0.902344 8.492188 -0.703125 C 12.320312 -0.109375 17.09375 -4.265625 17.3125 -4.445312 C 17.53125 -4.664062 17.554688 -5.015625 17.355469 -5.257812 Z M 5.191406 -17.839844 C 5.234375 -17.839844 5.257812 -17.773438 5.28125 -17.753906 C 6.335938 -16.5625 1.957031 -7.722656 1.40625 -8.074219 C 0.878906 -8.402344 4.265625 -17.839844 5.191406 -17.839844 Z M 5.191406 -17.839844 "/></g></g></g><g fill="#f4f4f4" fill-opacity="1"><g transform="translate(165.888891, 230.128682)"><g/></g></g><g fill="#f4f4f4" fill-opacity="1"><g transform="translate(174.071427, 230.128682)"><g><path d="M 7.148438 0 C 7.414062 0.0234375 7.632812 -0.152344 7.699219 -0.375 C 7.789062 -0.617188 7.699219 -0.878906 7.5 -1.035156 C 7.191406 -1.253906 6.929688 -1.519531 6.664062 -1.78125 C 6.535156 -1.914062 6.46875 -2.089844 6.46875 -2.265625 C 6.46875 -2.441406 6.554688 -2.597656 6.664062 -2.726562 C 7.851562 -3.828125 8.777344 -5.191406 8.734375 -6.355469 C 8.6875 -7.171875 8.183594 -7.898438 7.414062 -8.203125 C 7.128906 -8.335938 6.773438 -8.226562 6.644531 -7.941406 C 6.488281 -7.65625 6.621094 -7.304688 6.90625 -7.171875 C 7.480469 -6.886719 7.566406 -6.535156 7.566406 -6.3125 C 7.609375 -5.519531 6.863281 -4.464844 5.875 -3.5625 C 5.761719 -3.453125 5.632812 -3.410156 5.476562 -3.410156 C 5.324219 -3.429688 5.191406 -3.496094 5.101562 -3.609375 C 4.507812 -4.398438 3.960938 -5.214844 3.453125 -6.070312 C 3.300781 -6.335938 3.277344 -6.664062 3.386719 -6.953125 C 3.628906 -7.632812 3.894531 -8.292969 4.089844 -8.820312 C 5.519531 -12.5625 6.355469 -14.914062 5.632812 -15.949219 C 5.390625 -16.300781 4.992188 -16.5 4.597656 -16.476562 C 4.53125 -16.476562 4.464844 -16.453125 4.421875 -16.453125 C 2.199219 -15.773438 0.925781 -14.472656 0.570312 -12.539062 C 0.265625 -10.800781 0.859375 -8.753906 1.78125 -6.820312 C 1.890625 -6.578125 1.914062 -6.292969 1.824219 -6.027344 C 0.96875 -3.476562 0.617188 -1.472656 1.78125 -0.769531 C 2.660156 -0.265625 3.960938 -0.835938 4.882812 -1.363281 C 5.300781 -1.605469 5.410156 -1.453125 5.476562 -1.386719 C 5.875 -0.925781 6.335938 -0.484375 6.820312 -0.109375 C 6.90625 -0.0234375 7.039062 0 7.148438 0 Z M 4.246094 -2.835938 C 4.421875 -2.617188 4.464844 -2.441406 4.136719 -2.265625 C 3.167969 -1.714844 2.550781 -1.671875 2.375 -1.761719 C 1.980469 -2 2.179688 -3.167969 2.597656 -4.554688 C 2.617188 -4.640625 2.683594 -4.707031 2.792969 -4.730469 C 2.882812 -4.730469 2.96875 -4.683594 3.011719 -4.597656 C 3.410156 -3.980469 3.847656 -3.386719 4.246094 -2.835938 Z M 1.714844 -12.339844 C 1.957031 -13.792969 3.761719 -15.640625 4.683594 -15.308594 C 5.34375 -15.046875 3.761719 -11.195312 3.011719 -9.238281 C 2.902344 -8.976562 2.816406 -8.710938 2.726562 -8.46875 C 2.640625 -8.269531 2.441406 -8.117188 2.308594 -8.425781 C 1.761719 -9.65625 1.5625 -11.019531 1.714844 -12.339844 Z M 1.714844 -12.339844 "/></g></g></g><g fill="#f4f4f4" fill-opacity="1"><g transform="translate(183.309784, 230.128682)"><g/></g></g><g fill="#f4f4f4" fill-opacity="1"><g transform="translate(191.492321, 230.128682)"><g><path d="M 28.398438 -6.644531 C 29.410156 -8.359375 30.070312 -7.941406 31.5 -7.609375 C 33.214844 -6.953125 34.820312 -6.335938 36.273438 -5.808594 C 36.734375 -5.632812 37.042969 -5.257812 37.109375 -4.773438 C 37.484375 -2.066406 38.054688 -0.636719 38.9375 -0.351562 C 39.089844 -0.285156 39.242188 -0.308594 39.375 -0.375 C 39.507812 -0.441406 39.617188 -0.570312 39.660156 -0.703125 C 39.75 -1.011719 39.59375 -1.34375 39.289062 -1.453125 C 38.914062 -1.582031 38.628906 -2.464844 38.40625 -3.804688 C 38.339844 -4.089844 38.453125 -4.378906 38.671875 -4.554688 C 38.871094 -4.730469 39.175781 -4.796875 39.441406 -4.707031 C 40.9375 -4.15625 42.519531 -3.828125 44.128906 -3.738281 C 44.257812 -3.738281 44.414062 -3.804688 44.523438 -3.914062 C 44.632812 -4.027344 44.675781 -4.179688 44.675781 -4.332031 C 44.675781 -4.488281 44.609375 -4.640625 44.5 -4.730469 C 44.390625 -4.839844 44.238281 -4.90625 44.082031 -4.90625 C 42.300781 -5.039062 40.5625 -5.457031 38.890625 -6.117188 C 38.40625 -6.269531 38.054688 -6.710938 38.011719 -7.214844 C 37.660156 -11.8125 37.617188 -17.992188 37.59375 -21.449219 C 37.570312 -26.265625 37.527344 -28.136719 37.308594 -28.664062 C 37.21875 -28.90625 37 -29.058594 36.757812 -29.035156 C 36.492188 -29.015625 36.296875 -28.839844 36.230469 -28.597656 C 34.933594 -23.910156 33.328125 -19.3125 31.414062 -14.847656 C 30.773438 -13.394531 30.160156 -12.078125 29.519531 -10.84375 C 29.234375 -10.273438 28.53125 -10.007812 27.9375 -10.230469 C 20.722656 -13 12.472656 -15.96875 6.160156 -16.453125 C 3.71875 -16.628906 2.132812 -16.191406 1.453125 -15.15625 C 0.878906 -14.277344 0.988281 -13.109375 1.761719 -11.679688 C 4.179688 -7.257812 13.507812 -0.21875 20.039062 -0.21875 C 23.121094 -0.21875 25.957031 -2.925781 28.398438 -6.644531 Z M 5.082031 -15.332031 C 5.390625 -15.332031 5.71875 -15.332031 6.070312 -15.308594 C 12.078125 -14.847656 19.972656 -12.054688 26.96875 -9.371094 C 27.320312 -9.238281 27.605469 -8.929688 27.71875 -8.578125 C 27.847656 -8.203125 27.78125 -7.808594 27.585938 -7.480469 C 25.011719 -3.453125 22.460938 -1.386719 20.039062 -1.386719 C 14.410156 -1.386719 5.257812 -7.675781 2.773438 -12.230469 C 2.398438 -12.933594 2.023438 -13.902344 2.417969 -14.519531 C 2.75 -15.046875 3.695312 -15.332031 5.082031 -15.332031 Z M 35.988281 -23.78125 C 36.140625 -24.242188 36.429688 -24.152344 36.429688 -23.648438 C 36.429688 -22.945312 36.429688 -22.195312 36.449219 -21.449219 C 36.472656 -16.035156 36.558594 -11.726562 36.757812 -8.445312 C 36.800781 -8.074219 36.625 -7.742188 36.339844 -7.523438 C 36.054688 -7.304688 35.679688 -7.257812 35.351562 -7.390625 C 33.964844 -7.917969 32.46875 -8.492188 30.929688 -9.085938 L 30.070312 -9.414062 C 32.46875 -14.011719 34.449219 -18.828125 35.988281 -23.78125 Z M 35.988281 -23.78125 "/></g></g></g><g fill="#f4f4f4" fill-opacity="1"><g transform="translate(237.332153, 230.128682)"><g><path d="M 24.132812 -5.585938 C 23.890625 -5.785156 23.515625 -5.742188 23.316406 -5.5 C 23.273438 -5.433594 18.367188 0.550781 13.859375 -2.066406 C 13.265625 -2.484375 12.800781 -3.058594 12.5625 -3.71875 C 12.144531 -4.554688 11.636719 -5.566406 10.230469 -5.34375 C 9.503906 -5.234375 8.382812 -4.3125 7.433594 -3.253906 C 7.390625 -3.191406 7.304688 -3.167969 7.238281 -3.191406 C 7.171875 -3.210938 7.105469 -3.253906 7.105469 -3.34375 C 6.929688 -4.332031 6.269531 -5.167969 5.34375 -5.566406 C 4.597656 -5.761719 3.386719 -5.984375 0.859375 -3.476562 C 0.726562 -3.367188 0.550781 -3.410156 0.570312 -3.585938 C 0.570312 -3.671875 1.011719 -5.457031 1.011719 -5.457031 C 1.078125 -5.761719 0.878906 -6.070312 0.570312 -6.160156 C 0.265625 -6.226562 -0.0429688 -6.027344 -0.132812 -5.71875 L -1.1875 -1.078125 C -1.253906 -0.8125 -1.121094 -0.550781 -0.878906 -0.417969 C -0.617188 -0.308594 -0.328125 -0.375 -0.175781 -0.59375 C 2.773438 -4.289062 4.222656 -4.640625 4.816406 -4.554688 C 5.410156 -4.445312 6.203125 -3.253906 6.117188 -1.34375 C 6.117188 -1.078125 6.269531 -0.835938 6.535156 -0.769531 C 6.796875 -0.683594 7.0625 -0.792969 7.191406 -1.011719 C 8.09375 -2.550781 9.855469 -4.113281 10.40625 -4.203125 C 10.933594 -4.289062 11.085938 -4.089844 11.527344 -3.210938 C 11.855469 -2.332031 12.472656 -1.582031 13.265625 -1.078125 C 14.1875 -0.527344 15.246094 -0.21875 16.320312 -0.21875 C 20.523438 -0.21875 24.042969 -4.53125 24.21875 -4.773438 C 24.417969 -5.015625 24.375 -5.390625 24.132812 -5.585938 Z M 24.132812 -5.585938 "/></g></g></g><g fill="#f4f4f4" fill-opacity="1"><g transform="translate(260.494021, 230.128682)"><g><path d="M 18.390625 -5.324219 C 18.171875 -5.566406 17.796875 -5.585938 17.554688 -5.367188 C 17.488281 -5.300781 10.953125 0.570312 6.90625 -2.089844 C 5.300781 -3.144531 4.90625 -5.699219 4.90625 -5.71875 C 4.882812 -5.984375 4.683594 -6.179688 4.421875 -6.226562 C 4.179688 -6.246094 3.914062 -6.117188 3.804688 -5.894531 C 2.773438 -3.609375 0.945312 -0.703125 0.441406 -1.035156 C 0.394531 -1.035156 0.308594 -1.121094 0.242188 -1.277344 C -0.0234375 -2 0.0664062 -2.792969 0.441406 -3.476562 C 1.277344 -5.191406 2.816406 -6.421875 4.664062 -6.886719 C 4.863281 -6.929688 5.015625 -7.082031 5.082031 -7.28125 C 5.148438 -7.480469 5.082031 -7.699219 4.949219 -7.851562 C 4.796875 -7.984375 4.597656 -8.050781 4.398438 -8.007812 C 2.199219 -7.480469 0.375 -5.984375 -0.617188 -3.960938 C -1.144531 -2.96875 -1.210938 -1.78125 -0.792969 -0.746094 C -0.59375 -0.242188 -0.109375 0.109375 0.441406 0.109375 L 0.460938 0.109375 C 1.539062 0.0898438 2.882812 -1.253906 3.804688 -2.707031 C 3.914062 -2.882812 4.113281 -2.96875 4.3125 -2.949219 C 4.507812 -2.949219 4.683594 -2.835938 4.773438 -2.660156 C 5.148438 -2.046875 5.652344 -1.519531 6.269531 -1.144531 C 11.066406 2.046875 18.039062 -4.246094 18.347656 -4.507812 C 18.457031 -4.621094 18.523438 -4.773438 18.523438 -4.90625 C 18.542969 -5.058594 18.476562 -5.214844 18.390625 -5.324219 Z M 18.390625 -5.324219 "/></g></g></g><g fill="#f4f4f4" fill-opacity="1"><g transform="translate(278.266854, 230.128682)"><g><path d="M 19.226562 -5.476562 C 19.09375 -5.566406 18.960938 -5.632812 18.808594 -5.632812 C 18.652344 -5.609375 18.5 -5.542969 18.410156 -5.433594 C 18.347656 -5.390625 13.507812 -0.21875 9.304688 -1.914062 C 8.402344 -2.398438 7.675781 -3.125 7.171875 -4.027344 C 6.996094 -4.3125 6.773438 -4.597656 6.511719 -4.863281 C 6.226562 -5.214844 5.785156 -5.410156 5.324219 -5.433594 C 4.203125 -5.519531 2.835938 -4.773438 1.210938 -3.234375 C 1.164062 -3.191406 1.101562 -3.167969 1.035156 -3.210938 C 0.96875 -3.234375 0.925781 -3.320312 0.945312 -3.386719 L 1.429688 -5.542969 C 1.519531 -5.851562 1.320312 -6.179688 1.011719 -6.246094 C 0.703125 -6.3125 0.394531 -6.117188 0.308594 -5.808594 L -0.792969 -0.988281 C -0.859375 -0.726562 -0.726562 -0.460938 -0.484375 -0.351562 C -0.242188 -0.21875 0.0429688 -0.285156 0.21875 -0.484375 C 3.167969 -3.9375 4.664062 -4.265625 5.191406 -4.289062 C 5.71875 -4.3125 6.050781 -3.628906 6.226562 -3.367188 C 6.839844 -2.289062 7.765625 -1.40625 8.863281 -0.859375 C 13.792969 1.144531 19.027344 -4.421875 19.246094 -4.664062 C 19.46875 -4.882812 19.445312 -5.257812 19.226562 -5.476562 Z M 19.226562 -5.476562 "/></g></g></g><g fill="#f4f4f4" fill-opacity="1"><g transform="translate(296.589599, 230.128682)"><g><path d="M 20.808594 -5.039062 C 20.699219 -5.148438 20.566406 -5.191406 20.414062 -5.214844 C 20.257812 -5.214844 20.105469 -5.148438 19.996094 -5.039062 C 16.675781 -1.78125 11.835938 -0.660156 9.8125 -1.296875 C 8.09375 -1.847656 7.304688 -3.410156 6.953125 -5.058594 C 6.886719 -5.433594 6.953125 -5.785156 7.148438 -6.09375 C 9.789062 -10.582031 12.582031 -17.046875 11.613281 -18.609375 C 11.394531 -18.960938 11 -19.136719 10.582031 -19.070312 C 8.140625 -18.765625 6.050781 -13.703125 5.632812 -9.195312 C 5.542969 -8.226562 5.542969 -7.28125 5.609375 -6.335938 C 5.632812 -6.027344 5.566406 -5.71875 5.390625 -5.457031 C 5.257812 -5.234375 5.101562 -4.992188 4.949219 -4.773438 C 3.011719 -1.914062 1.695312 -0.988281 1.144531 -1.054688 C 0.859375 -1.078125 0.617188 -1.277344 0.550781 -1.539062 C 0.328125 -2.660156 0.59375 -3.804688 1.230469 -4.730469 C 1.695312 -5.28125 2.375 -5.894531 3.035156 -5.761719 C 3.410156 -5.652344 3.71875 -5.367188 3.871094 -5.015625 C 3.9375 -4.707031 4.222656 -4.488281 4.53125 -4.53125 C 4.839844 -4.574219 5.058594 -4.863281 5.015625 -5.191406 C 4.796875 -5.984375 4.203125 -6.597656 3.410156 -6.839844 C 2.726562 -7.0625 1.628906 -6.972656 0.351562 -5.476562 C -0.351562 -4.664062 -1.054688 -2.507812 -0.527344 -1.121094 C -0.308594 -0.460938 0.285156 0 0.96875 0.0898438 C 1.035156 0.0898438 1.121094 0.0898438 1.1875 0.0898438 C 2.355469 0.0898438 3.828125 -1.164062 5.566406 -3.652344 C 5.632812 -3.738281 5.761719 -3.804688 5.894531 -3.785156 C 6.027344 -3.785156 6.136719 -3.695312 6.179688 -3.585938 C 6.664062 -1.980469 7.898438 -0.726562 9.457031 -0.199219 C 12.054688 0.617188 17.335938 -0.835938 20.808594 -4.222656 C 21.03125 -4.445312 21.03125 -4.796875 20.808594 -5.039062 Z M 6.796875 -9.085938 C 7.148438 -13.109375 8.753906 -16.652344 10.117188 -17.664062 C 10.230469 -17.730469 10.382812 -17.753906 10.515625 -17.664062 C 10.625 -17.597656 10.691406 -17.464844 10.691406 -17.335938 C 10.492188 -15.664062 9.304688 -12.648438 7.105469 -8.734375 C 6.753906 -8.160156 6.753906 -8.6875 6.796875 -9.085938 Z M 6.796875 -9.085938 "/></g></g></g><g fill="#f4f4f4" fill-opacity="1"><g transform="translate(316.606047, 230.128682)"><g><path d="M 18.390625 -5.324219 C 18.171875 -5.566406 17.796875 -5.585938 17.554688 -5.367188 C 17.488281 -5.300781 10.953125 0.570312 6.90625 -2.089844 C 5.300781 -3.144531 4.90625 -5.699219 4.90625 -5.71875 C 4.882812 -5.984375 4.683594 -6.179688 4.421875 -6.226562 C 4.179688 -6.246094 3.914062 -6.117188 3.804688 -5.894531 C 2.773438 -3.609375 0.945312 -0.703125 0.441406 -1.035156 C 0.394531 -1.035156 0.308594 -1.121094 0.242188 -1.277344 C -0.0234375 -2 0.0664062 -2.792969 0.441406 -3.476562 C 1.277344 -5.191406 2.816406 -6.421875 4.664062 -6.886719 C 4.863281 -6.929688 5.015625 -7.082031 5.082031 -7.28125 C 5.148438 -7.480469 5.082031 -7.699219 4.949219 -7.851562 C 4.796875 -7.984375 4.597656 -8.050781 4.398438 -8.007812 C 2.199219 -7.480469 0.375 -5.984375 -0.617188 -3.960938 C -1.144531 -2.96875 -1.210938 -1.78125 -0.792969 -0.746094 C -0.59375 -0.242188 -0.109375 0.109375 0.441406 0.109375 L 0.460938 0.109375 C 1.539062 0.0898438 2.882812 -1.253906 3.804688 -2.707031 C 3.914062 -2.882812 4.113281 -2.96875 4.3125 -2.949219 C 4.507812 -2.949219 4.683594 -2.835938 4.773438 -2.660156 C 5.148438 -2.046875 5.652344 -1.519531 6.269531 -1.144531 C 11.066406 2.046875 18.039062 -4.246094 18.347656 -4.507812 C 18.457031 -4.621094 18.523438 -4.773438 18.523438 -4.90625 C 18.542969 -5.058594 18.476562 -5.214844 18.390625 -5.324219 Z M 18.390625 -5.324219 "/></g></g></g></svg>